Coordinates
version=1
nRows=8
nColumns=42
inDegrees=yes

Units are S.I. units (second, meters, Newtons, ...)
If the header above contains a line with 'inDegrees', this indicates whether rotational values are in degrees (yes) or radians (no).

endheader
time	pelvis_tilt	pelvis_list	pelvis_rotation	pelvis_tx	pelvis_ty	pelvis_tz	hip_flexion_r	hip_adduction_r	hip_rotation_r	knee_angle_r	knee_adduction_r	knee_angle_r_beta	ankle_angle_r	subtalar_angle_r	mtp_angle_r	hip_flexion_l	hip_adduction_l	hip_rotation_l	knee_angle_l	knee_adduction_l	knee_angle_l_beta	ankle_angle_l	subtalar_angle_l	mtp_angle_l	lumbar_extension	lumbar_bending	lumbar_rotation	arm_flex_r	arm_add_r	arm_rot_r	elbow_flex_r	pro_sup_r	wrist_flex_r	wrist_dev_r	arm_flex_l	arm_add_l	arm_rot_l	elbow_flex_l	pro_sup_l	wrist_flex_l	wrist_dev_l
      1.20000000	     19.82731565	      3.47804886	      0.37126283	     -0.79749422	      0.89985079	     -0.06275777	      7.40326547	     -8.85948098	    -18.76003810	     62.17949839	     -9.46529547	      1.08523697	     15.64538824	    -11.29718545	     -7.72759996	    -13.48076067	      7.70317628	     -2.61195023	     23.24610692	      1.27909539	      0.40572110	     22.66867869	      2.47008983	     -7.72759996	    -40.85942504	     -3.32870627	     -2.71915419	      4.37888302	     -4.09367985	    -25.73910440	     28.92407331	     90.00000001	      0.00000000	      0.00000000	     10.40552789	     -7.24627655	    -26.97126718	     38.20557063	     90.00000001	      0.00000000	      0.00000000
      1.21000000	     19.98094708	      3.41843807	      0.38117493	     -0.79007062	      0.90016237	     -0.06314187	      8.00320659	     -8.68913972	    -18.67857322	     59.98280832	     -9.02925047	      1.04689750	     15.27767848	    -11.63176454	     -7.71758468	    -14.60569315	      7.74516859	     -2.67875351	     22.39232248	      1.04385698	      0.39081975	     23.33555407	      3.41662514	     -7.71758468	    -41.07750229	     -3.20442635	     -2.86681030	      4.18321571	     -4.04661215	    -26.98740932	     28.36305695	     90.00000001	      0.00000000	      0.00000000	     10.81250782	     -7.57036811	    -26.31586007	     38.11855501	     90.00000001	      0.00000000	      0.00000000
      1.22000000	     19.67677381	      3.55177288	      0.41365250	     -0.78303467	      0.89937318	     -0.06355519	      9.25096135	     -8.84945123	    -18.65793252	     58.07952285	     -8.58527348	      1.01367890	     15.16695766	    -11.47614802	     -7.71352849	    -14.87086685	      7.95970636	     -3.00610352	     22.21997150	      0.78485009	      0.38781166	     23.69083892	      3.66845193	     -7.71352849	    -40.87540204	     -3.29064142	     -3.13111887	      3.76997715	     -4.04885839	    -27.22339550	     28.18126675	     90.00000001	      0.00000000	      0.00000000	     11.23199718	     -7.86112890	    -26.09570141	     38.26496648	     90.00000001	      0.00000000	      0.00000000
      1.23000000	     19.59405615	      3.60710251	      0.48738169	     -0.77578638	      0.89899297	     -0.06395140	     10.04568554	     -8.93048553	    -18.78536623	     55.90947911	     -8.09290494	      0.97580449	     14.85722651	    -11.63319562	     -7.70879715	    -15.50205139	      8.03495862	     -3.39044542	     21.81470393	      0.57425679	      0.38073841	     24.18048880	      4.41845781	     -7.70879715	    -40.87731144	     -3.26986623	     -3.33115605	      3.41603738	     -4.04053724	    -27.77722931	     27.85719597	     90.00000001	      0.00000000	      0.00000000	     11.68026922	     -8.14032980	    -25.72718175	     38.27625695	     90.00000001	      0.00000000	      0.00000000
      1.24000000	     19.71150414	      3.42283168	      0.59947840	     -0.76844489	      0.89895981	     -0.06396960	     10.43511546	     -8.62635855	    -19.09226559	     53.43419418	     -7.70127173	      0.93260262	     14.11700526	    -12.00772736	     -7.69889036	    -16.28406391	      7.60928500	     -4.33693362	     21.59463789	      0.57678180	      0.37689753	     24.89396317	      6.41153332	     -7.69889036	    -41.08480375	     -3.03777239	     -3.35988653	      3.11966661	     -3.93612421	    -29.23068995	     27.65166110	     90.00000001	      0.00000000	      0.00000000	     12.10425356	     -8.44887057	    -25.10679152	     38.42375665	     90.00000001	      0.00000000	      0.00000000
      1.25000000	     19.43238052	      3.54921244	      0.71855304	     -0.76132852	      0.89801607	     -0.06436107	     11.37265642	     -8.81538398	    -19.30286742	     51.27809663	     -7.19412586	      0.89497162	     13.97375346	    -11.94404741	     -7.69411627	    -16.53788840	      7.78461758	     -4.96980789	     21.47752347	      0.17381351	      0.37485350	     25.41871096	      7.10051802	     -7.69411627	    -40.89520857	     -3.07960103	     -3.60788562	      2.71685450	     -3.95592879	    -29.57562717	     27.41082861	     90.00000001	      0.00000000	      0.00000000	     12.55389441	     -8.71048760	    -24.85589852	     38.47016280	     90.00000001	      0.00000000	      0.00000000
      1.26000000	     19.09389744	      3.70430581	      0.81121762	     -0.75433607	      0.89695367	     -0.06456507	     12.33490013	     -8.95609419	    -19.42340868	     49.04362241	     -6.73872335	      0.85597269	     13.73511734	    -11.69723273	     -7.69055452	    -16.69935433	      7.96341481	     -5.47408997	     21.42784055	     -0.12983696	      0.37398637	     25.73558980	      7.73782124	     -7.69055452	    -40.65953996	     -3.18676514	     -3.89136302	      2.29901326	     -3.93235604	    -29.84099119	     27.34913816	     90.00000001	      0.00000000	      0.00000000	     12.97428722	     -8.99183099	    -24.64870428	     38.60729716	     90.00000001	      0.00000000	      0.00000000
      1.27000000	     19.31536919	      3.27192419	      1.02453302	     -0.74673422	      0.89687893	     -0.06430836	     12.29323662	     -8.32478829	    -20.08978407	     46.28698748	     -6.42761290	      0.80786033	     13.04334046	    -11.79358256	     -7.67998299	    -17.43216072	      7.05943609	     -7.38279524	     21.54587548	     -0.20712988	      0.37604647	     27.03517395	     11.24581410	     -7.67998299	    -40.93161990	     -2.70426379	     -3.73536403	      1.97050647	     -3.87010384	    -31.40586005	     27.13487905	     90.00000001	      0.00000000	      0.00000000	     13.44445251	     -9.22009404	    -24.07242276	     38.67505884	     90.00000001	      0.00000000	      0.00000000
